<svg width="193" height="130" viewBox="0 0 193 130" fill="none" xmlns="http://www.w3.org/2000/svg">
<mask id="path-1-outside-1" maskUnits="userSpaceOnUse" x="0" y="0" width="193" height="130" fill="black">
<rect fill="white" width="193" height="130"/>
<path d="M50.0281 24.3379C46.0633 24.5658 42.144 24.748 38.2703 24.8848C34.4422 25.0215 30.5685 25.2721 26.6492 25.6367L27.1961 31.5156L38.5437 32.2676L40.4578 39.1035C38.407 39.5592 36.3335 39.9238 34.2371 40.1973C32.1863 40.4251 30.1355 40.7441 28.0848 41.1543C28.5405 44.5723 28.8595 47.9902 29.0418 51.4082C29.2241 54.7806 29.3152 58.1758 29.3152 61.5938L11.3367 62.209C11.5646 56.877 11.7013 51.5905 11.7469 46.3496C11.7924 41.0632 11.8152 35.7539 11.8152 30.4219V24.3379V10.5977C14.4585 10.5521 17.0561 10.5065 19.6082 10.4609C22.2059 10.3698 24.8263 10.3242 27.4695 10.3242C31.0242 10.3242 34.5789 10.4154 38.1336 10.5977C41.6883 10.7344 45.2658 10.8939 48.866 11.0762C49.1395 13.2637 49.3901 15.474 49.618 17.707C49.8914 19.8945 50.0281 22.1048 50.0281 24.3379Z"/>
<path d="M89.2418 58.6543C83.8186 59.0645 78.4182 59.4518 73.0406 59.8164C67.7086 60.181 62.331 60.5228 56.9078 60.8418C56.6799 52.1374 56.4977 43.5013 56.3609 34.9336C56.2242 26.3203 55.9736 17.6387 55.609 8.88867C58.6624 8.8431 61.6702 8.75195 64.6324 8.61523C67.5947 8.47852 70.5797 8.29622 73.5875 8.06836C73.0862 11.4408 72.6077 14.8359 72.1519 18.2539C71.7418 21.6263 71.4228 25.0215 71.1949 28.4395C71.0126 31.3105 70.8531 34.1816 70.7164 37.0527C70.6253 39.8783 70.5341 42.7266 70.443 45.5977C73.4508 45.6888 76.413 45.7344 79.3297 45.7344C82.2919 45.7344 85.2542 45.7799 88.2164 45.8711L89.2418 58.6543Z"/>
<path d="M138.983 60.1582L128.592 61.7305C127.863 59.4062 127.134 57.1048 126.405 54.8262C125.676 52.502 124.969 50.1777 124.286 47.8535L107.469 48.4688L105.35 57.5605H94.8227C95.4607 49.8132 96.1215 42.1113 96.8051 34.4551C97.4887 26.7988 98.1495 19.1198 98.7875 11.418C102.069 10.8711 105.327 10.4154 108.563 10.0508C111.844 9.6862 115.148 9.50391 118.475 9.50391C122.531 9.50391 126.587 9.57227 130.643 9.70898C131.372 14.4486 132.079 19.1882 132.762 23.9277C133.491 28.6217 134.243 33.3385 135.018 38.0781C135.565 41.8151 136.157 45.5065 136.795 49.1523C137.479 52.7982 138.208 56.4668 138.983 60.1582ZM121.893 38.5566C121.847 38.1465 121.733 37.3945 121.551 36.3008C121.369 35.1615 121.164 33.9766 120.936 32.7461C120.708 31.4701 120.435 30.3307 120.116 29.3281C119.842 28.2799 119.569 27.6647 119.295 27.4824C119.204 27.4368 118.976 27.3913 118.612 27.3457C118.293 27.3001 117.928 27.2546 117.518 27.209C117.153 27.1634 116.789 27.1406 116.424 27.1406C116.06 27.1406 115.809 27.1406 115.672 27.1406C115.444 27.1406 115.125 27.1406 114.715 27.1406C114.351 27.1406 113.94 27.1634 113.485 27.209C113.075 27.209 112.664 27.2546 112.254 27.3457C111.89 27.4368 111.639 27.5508 111.502 27.6875C111.411 27.7331 111.297 28.0293 111.161 28.5762C111.024 29.123 110.842 29.8066 110.614 30.627C110.431 31.4017 110.226 32.2448 109.998 33.1562C109.816 34.0677 109.634 34.9336 109.452 35.7539C109.269 36.5742 109.11 37.2806 108.973 37.873C108.882 38.4655 108.814 38.8073 108.768 38.8984L121.893 38.5566Z"/>
<path d="M182.708 20.5781V25.3633L169.515 26.0469C169.333 28.6901 169.196 31.3105 169.105 33.9082C169.014 36.5059 168.968 39.1035 168.968 41.7012C168.968 44.8913 168.877 48.0814 168.695 51.2715C168.558 54.416 168.376 57.5605 168.148 60.7051C166.507 60.7962 164.866 60.8646 163.226 60.9102C161.585 61.0013 159.945 61.0469 158.304 61.0469C157.711 61.0469 157.119 61.0241 156.527 60.9785C155.98 60.9785 155.433 60.9785 154.886 60.9785C154.977 58.1986 155.045 55.4414 155.091 52.707C155.182 49.9271 155.228 47.1699 155.228 44.4355C155.228 41.7012 155.159 38.9668 155.023 36.2324C154.886 33.4525 154.726 30.6725 154.544 27.8926C153.223 27.9382 151.878 27.9837 150.511 28.0293C149.189 28.0749 147.845 28.0977 146.478 28.0977C145.703 28.0977 144.928 28.0977 144.154 28.0977C143.424 28.0977 142.672 28.0749 141.898 28.0293C141.761 24.6569 141.67 21.3073 141.624 17.9805C141.579 14.6536 141.533 11.3268 141.488 8C148.323 8.13672 155.114 8.3418 161.859 8.61523C168.603 8.8431 175.371 9.04818 182.161 9.23047C182.344 11.1901 182.48 13.1042 182.571 14.9727C182.663 16.7956 182.708 18.6641 182.708 20.5781Z"/>
<path d="M52.8027 92.3262C52.8027 92.9681 52.765 93.5723 52.6895 94.1387C52.6139 94.7051 52.4818 95.2904 52.293 95.8945C52.0664 96.5365 51.6322 97.1595 50.9902 97.7637C50.3483 98.3301 49.6309 98.8776 48.8379 99.4062C48.0449 99.8971 47.2331 100.331 46.4023 100.709C45.5716 101.049 44.873 101.313 44.3066 101.502C44.4954 101.54 44.873 101.615 45.4395 101.729C46.0059 101.804 46.5911 101.917 47.1953 102.068C47.8372 102.219 48.4225 102.408 48.9512 102.635C49.4798 102.824 49.8197 103.031 49.9707 103.258C50.235 103.711 50.4427 104.277 50.5938 104.957C50.7826 105.599 50.9147 106.298 50.9902 107.053C51.0658 107.77 51.1224 108.488 51.1602 109.205C51.1979 109.885 51.2168 110.489 51.2168 111.018C51.2168 111.206 51.2168 111.414 51.2168 111.641C51.2168 111.829 51.1979 112.018 51.1602 112.207C51.0846 112.585 50.8203 113.094 50.3672 113.736C49.9141 114.34 49.3854 114.964 48.7812 115.605C48.1771 116.247 47.5729 116.852 46.9688 117.418C46.4023 117.947 45.9681 118.324 45.666 118.551C45.2507 118.853 44.8353 119.117 44.4199 119.344C44.0423 119.57 43.627 119.778 43.1738 119.967C42.834 120.118 42.0977 120.231 40.9648 120.307C39.8698 120.382 38.6992 120.439 37.4531 120.477C36.207 120.552 35.0365 120.59 33.9414 120.59C32.8464 120.628 32.11 120.646 31.7324 120.646C28.7116 120.646 25.7285 120.59 22.7832 120.477C19.8379 120.401 16.8548 120.288 13.834 120.137C13.9095 117.456 13.9661 114.794 14.0039 112.15C14.0417 109.469 14.0605 106.77 14.0605 104.051C14.0605 100.992 13.9661 97.9525 13.7773 94.9316C13.5885 91.9108 13.3809 88.89 13.1543 85.8691L8.79297 85.4727C8.60417 83.9622 8.45312 82.4896 8.33984 81.0547C8.26432 79.582 8.15104 78.1094 8 76.6367C11.0964 76.7122 14.1927 76.7878 17.2891 76.8633C20.3854 76.9388 23.4818 77.0143 26.5781 77.0898C27.8997 77.1276 29.5801 77.2598 31.6191 77.4863C33.6582 77.6751 35.735 77.9395 37.8496 78.2793C40.002 78.6191 42.0221 79.0345 43.9102 79.5254C45.8359 80.0163 47.3464 80.5638 48.4414 81.168C49.2721 81.6211 49.9518 82.3008 50.4805 83.207C51.0469 84.1133 51.5 85.1139 51.8398 86.209C52.1797 87.2663 52.4251 88.3424 52.5762 89.4375C52.7272 90.5326 52.8027 91.4954 52.8027 92.3262ZM37.7363 92.0996C37.7363 91.722 37.7174 91.25 37.6797 90.6836C37.6419 90.0794 37.5664 89.4753 37.4531 88.8711C37.3398 88.2669 37.1888 87.7005 37 87.1719C36.8112 86.6432 36.5846 86.209 36.3203 85.8691C36.2448 85.7559 36.0371 85.6615 35.6973 85.5859C35.3574 85.5104 34.9798 85.4538 34.5645 85.416C34.1868 85.3783 33.8092 85.3594 33.4316 85.3594C33.054 85.3594 32.8086 85.3594 32.6953 85.3594C30.8073 85.3594 28.9382 85.4727 27.0879 85.6992C25.2376 85.888 23.3874 86.1335 21.5371 86.4355C21.7637 88.2858 21.9714 90.1361 22.1602 91.9863C22.349 93.8366 22.5755 95.6868 22.8398 97.5371C23.293 97.5371 24.1803 97.4993 25.502 97.4238C26.8236 97.3483 28.2207 97.2539 29.6934 97.1406C31.2038 97.0273 32.6009 96.8952 33.8848 96.7441C35.1686 96.5553 35.9993 96.3477 36.377 96.1211C37.0189 95.7057 37.3965 95.1016 37.5098 94.3086C37.6608 93.5156 37.7363 92.7793 37.7363 92.0996ZM37.2832 108.072C37.2832 107.506 37.2077 106.939 37.0566 106.373C36.9056 105.769 36.6035 105.278 36.1504 104.9C36.0371 104.787 35.7728 104.693 35.3574 104.617C34.9421 104.542 34.5078 104.504 34.0547 104.504C33.6016 104.466 33.1673 104.447 32.752 104.447C32.3366 104.41 32.0534 104.391 31.9023 104.391C30.2786 104.391 28.6738 104.485 27.0879 104.674C25.502 104.825 23.916 104.995 22.3301 105.184L23.2363 112.377C23.4251 112.377 23.8594 112.358 24.5391 112.32C25.2565 112.283 26.0684 112.245 26.9746 112.207C27.9186 112.132 28.9004 112.056 29.9199 111.98C30.9772 111.905 31.959 111.811 32.8652 111.697C33.7715 111.584 34.5456 111.471 35.1875 111.357C35.8294 111.206 36.2259 111.036 36.377 110.848C36.7168 110.432 36.9434 109.998 37.0566 109.545C37.2077 109.092 37.2832 108.601 37.2832 108.072Z"/>
<path d="M96.0762 120.193L87.4668 121.496C86.8626 119.57 86.2585 117.663 85.6543 115.775C85.0501 113.85 84.4648 111.924 83.8984 109.998L69.9648 110.508L68.209 118.041H59.4863C60.015 111.622 60.5625 105.24 61.1289 98.8965C61.6953 92.5527 62.2428 86.1901 62.7715 79.8086C65.4902 79.3555 68.1901 78.9779 70.8711 78.6758C73.5898 78.3737 76.3275 78.2227 79.084 78.2227C82.4447 78.2227 85.8053 78.2793 89.166 78.3926C89.7702 82.3197 90.3555 86.2467 90.9219 90.1738C91.526 94.0632 92.1491 97.9714 92.791 101.898C93.2441 104.995 93.735 108.053 94.2637 111.074C94.8301 114.095 95.4342 117.135 96.0762 120.193ZM81.916 102.295C81.8783 101.955 81.7839 101.332 81.6328 100.426C81.4818 99.4818 81.3118 98.5 81.123 97.4805C80.9342 96.4232 80.7077 95.4792 80.4434 94.6484C80.2168 93.7799 79.9902 93.2702 79.7637 93.1191C79.6882 93.0814 79.4993 93.0436 79.1973 93.0059C78.9329 92.9681 78.6309 92.9303 78.291 92.8926C77.9889 92.8548 77.6868 92.8359 77.3848 92.8359C77.0827 92.8359 76.875 92.8359 76.7617 92.8359C76.5729 92.8359 76.3086 92.8359 75.9688 92.8359C75.6667 92.8359 75.3268 92.8548 74.9492 92.8926C74.6094 92.8926 74.2695 92.9303 73.9297 93.0059C73.6276 93.0814 73.4199 93.1758 73.3066 93.2891C73.2311 93.3268 73.1367 93.5723 73.0234 94.0254C72.9102 94.4785 72.7591 95.0449 72.5703 95.7246C72.4193 96.3665 72.2493 97.0651 72.0605 97.8203C71.9095 98.5755 71.7585 99.293 71.6074 99.9727C71.4564 100.652 71.3242 101.238 71.2109 101.729C71.1354 102.219 71.0788 102.503 71.041 102.578L81.916 102.295Z"/>
<path d="M145.297 120.08C143.484 120.495 141.672 120.873 139.859 121.213C138.085 121.59 136.272 121.93 134.422 122.232C132.156 118.796 129.91 115.417 127.682 112.094C125.492 108.733 123.207 105.391 120.828 102.068L114.768 107.959L114.201 120.533C113.333 120.495 112.464 120.458 111.596 120.42C110.765 120.42 109.934 120.42 109.104 120.42C108.311 120.42 107.536 120.439 106.781 120.477C106.026 120.514 105.271 120.59 104.516 120.703C104.062 117.229 103.628 113.774 103.213 110.338C102.835 106.864 102.495 103.371 102.193 99.8594C101.891 96.3477 101.646 92.8548 101.457 89.3809C101.306 85.8691 101.155 82.3574 101.004 78.8457C103.836 78.9212 106.63 78.9779 109.387 79.0156C112.181 79.0156 114.994 79.0534 117.826 79.1289L117.486 92.2695C119.525 90.1549 121.451 88.0026 123.264 85.8125C125.076 83.6224 126.945 81.3945 128.871 79.1289C130.684 79.0156 132.515 78.9023 134.365 78.7891C136.215 78.638 138.047 78.487 139.859 78.3359L139.633 82.5273L127.625 95.0449C130.495 99.3118 133.383 103.503 136.291 107.619C139.236 111.735 142.238 115.889 145.297 120.08Z"/>
<path d="M183.926 120.193L175.316 121.496C174.712 119.57 174.108 117.663 173.504 115.775C172.9 113.85 172.314 111.924 171.748 109.998L157.814 110.508L156.059 118.041H147.336C147.865 111.622 148.412 105.24 148.979 98.8965C149.545 92.5527 150.092 86.1901 150.621 79.8086C153.34 79.3555 156.04 78.9779 158.721 78.6758C161.439 78.3737 164.177 78.2227 166.934 78.2227C170.294 78.2227 173.655 78.2793 177.016 78.3926C177.62 82.3197 178.205 86.2467 178.771 90.1738C179.376 94.0632 179.999 97.9714 180.641 101.898C181.094 104.995 181.585 108.053 182.113 111.074C182.68 114.095 183.284 117.135 183.926 120.193ZM169.766 102.295C169.728 101.955 169.633 101.332 169.482 100.426C169.331 99.4818 169.161 98.5 168.973 97.4805C168.784 96.4232 168.557 95.4792 168.293 94.6484C168.066 93.7799 167.84 93.2702 167.613 93.1191C167.538 93.0814 167.349 93.0436 167.047 93.0059C166.783 92.9681 166.48 92.9303 166.141 92.8926C165.839 92.8548 165.536 92.8359 165.234 92.8359C164.932 92.8359 164.725 92.8359 164.611 92.8359C164.423 92.8359 164.158 92.8359 163.818 92.8359C163.516 92.8359 163.176 92.8548 162.799 92.8926C162.459 92.8926 162.119 92.9303 161.779 93.0059C161.477 93.0814 161.27 93.1758 161.156 93.2891C161.081 93.3268 160.986 93.5723 160.873 94.0254C160.76 94.4785 160.609 95.0449 160.42 95.7246C160.269 96.3665 160.099 97.0651 159.91 97.8203C159.759 98.5755 159.608 99.293 159.457 99.9727C159.306 100.652 159.174 101.238 159.061 101.729C158.985 102.219 158.928 102.503 158.891 102.578L169.766 102.295Z"/>
</mask>
<path d="M50.0281 24.3379C46.0633 24.5658 42.144 24.748 38.2703 24.8848C34.4422 25.0215 30.5685 25.2721 26.6492 25.6367L27.1961 31.5156L38.5437 32.2676L40.4578 39.1035C38.407 39.5592 36.3335 39.9238 34.2371 40.1973C32.1863 40.4251 30.1355 40.7441 28.0848 41.1543C28.5405 44.5723 28.8595 47.9902 29.0418 51.4082C29.2241 54.7806 29.3152 58.1758 29.3152 61.5938L11.3367 62.209C11.5646 56.877 11.7013 51.5905 11.7469 46.3496C11.7924 41.0632 11.8152 35.7539 11.8152 30.4219V24.3379V10.5977C14.4585 10.5521 17.0561 10.5065 19.6082 10.4609C22.2059 10.3698 24.8263 10.3242 27.4695 10.3242C31.0242 10.3242 34.5789 10.4154 38.1336 10.5977C41.6883 10.7344 45.2658 10.8939 48.866 11.0762C49.1395 13.2637 49.3901 15.474 49.618 17.707C49.8914 19.8945 50.0281 22.1048 50.0281 24.3379Z" fill="#F3DEA7"/>
<path d="M50.0281 24.3379C46.0633 24.5658 42.144 24.748 38.2703 24.8848C34.4422 25.0215 30.5685 25.2721 26.6492 25.6367L27.1961 31.5156L38.5437 32.2676L40.4578 39.1035C38.407 39.5592 36.3335 39.9238 34.2371 40.1973C32.1863 40.4251 30.1355 40.7441 28.0848 41.1543C28.5405 44.5723 28.8595 47.9902 29.0418 51.4082C29.2241 54.7806 29.3152 58.1758 29.3152 61.5938L11.3367 62.209C11.5646 56.877 11.7013 51.5905 11.7469 46.3496C11.7924 41.0632 11.8152 35.7539 11.8152 30.4219V24.3379V10.5977C14.4585 10.5521 17.0561 10.5065 19.6082 10.4609C22.2059 10.3698 24.8263 10.3242 27.4695 10.3242C31.0242 10.3242 34.5789 10.4154 38.1336 10.5977C41.6883 10.7344 45.2658 10.8939 48.866 11.0762C49.1395 13.2637 49.3901 15.474 49.618 17.707C49.8914 19.8945 50.0281 22.1048 50.0281 24.3379Z" fill="url(#paint0_linear)"/>
<path d="M89.2418 58.6543C83.8186 59.0645 78.4182 59.4518 73.0406 59.8164C67.7086 60.181 62.331 60.5228 56.9078 60.8418C56.6799 52.1374 56.4977 43.5013 56.3609 34.9336C56.2242 26.3203 55.9736 17.6387 55.609 8.88867C58.6624 8.8431 61.6702 8.75195 64.6324 8.61523C67.5947 8.47852 70.5797 8.29622 73.5875 8.06836C73.0862 11.4408 72.6077 14.8359 72.1519 18.2539C71.7418 21.6263 71.4228 25.0215 71.1949 28.4395C71.0126 31.3105 70.8531 34.1816 70.7164 37.0527C70.6253 39.8783 70.5341 42.7266 70.443 45.5977C73.4508 45.6888 76.413 45.7344 79.3297 45.7344C82.2919 45.7344 85.2542 45.7799 88.2164 45.8711L89.2418 58.6543Z" fill="#F3DEA7"/>
<path d="M89.2418 58.6543C83.8186 59.0645 78.4182 59.4518 73.0406 59.8164C67.7086 60.181 62.331 60.5228 56.9078 60.8418C56.6799 52.1374 56.4977 43.5013 56.3609 34.9336C56.2242 26.3203 55.9736 17.6387 55.609 8.88867C58.6624 8.8431 61.6702 8.75195 64.6324 8.61523C67.5947 8.47852 70.5797 8.29622 73.5875 8.06836C73.0862 11.4408 72.6077 14.8359 72.1519 18.2539C71.7418 21.6263 71.4228 25.0215 71.1949 28.4395C71.0126 31.3105 70.8531 34.1816 70.7164 37.0527C70.6253 39.8783 70.5341 42.7266 70.443 45.5977C73.4508 45.6888 76.413 45.7344 79.3297 45.7344C82.2919 45.7344 85.2542 45.7799 88.2164 45.8711L89.2418 58.6543Z" fill="url(#paint1_linear)"/>
<path d="M138.983 60.1582L128.592 61.7305C127.863 59.4062 127.134 57.1048 126.405 54.8262C125.676 52.502 124.969 50.1777 124.286 47.8535L107.469 48.4688L105.35 57.5605H94.8227C95.4607 49.8132 96.1215 42.1113 96.8051 34.4551C97.4887 26.7988 98.1495 19.1198 98.7875 11.418C102.069 10.8711 105.327 10.4154 108.563 10.0508C111.844 9.6862 115.148 9.50391 118.475 9.50391C122.531 9.50391 126.587 9.57227 130.643 9.70898C131.372 14.4486 132.079 19.1882 132.762 23.9277C133.491 28.6217 134.243 33.3385 135.018 38.0781C135.565 41.8151 136.157 45.5065 136.795 49.1523C137.479 52.7982 138.208 56.4668 138.983 60.1582ZM121.893 38.5566C121.847 38.1465 121.733 37.3945 121.551 36.3008C121.369 35.1615 121.164 33.9766 120.936 32.7461C120.708 31.4701 120.435 30.3307 120.116 29.3281C119.842 28.2799 119.569 27.6647 119.295 27.4824C119.204 27.4368 118.976 27.3913 118.612 27.3457C118.293 27.3001 117.928 27.2546 117.518 27.209C117.153 27.1634 116.789 27.1406 116.424 27.1406C116.06 27.1406 115.809 27.1406 115.672 27.1406C115.444 27.1406 115.125 27.1406 114.715 27.1406C114.351 27.1406 113.94 27.1634 113.485 27.209C113.075 27.209 112.664 27.2546 112.254 27.3457C111.89 27.4368 111.639 27.5508 111.502 27.6875C111.411 27.7331 111.297 28.0293 111.161 28.5762C111.024 29.123 110.842 29.8066 110.614 30.627C110.431 31.4017 110.226 32.2448 109.998 33.1562C109.816 34.0677 109.634 34.9336 109.452 35.7539C109.269 36.5742 109.11 37.2806 108.973 37.873C108.882 38.4655 108.814 38.8073 108.768 38.8984L121.893 38.5566Z" fill="#F3DEA7"/>
<path d="M138.983 60.1582L128.592 61.7305C127.863 59.4062 127.134 57.1048 126.405 54.8262C125.676 52.502 124.969 50.1777 124.286 47.8535L107.469 48.4688L105.35 57.5605H94.8227C95.4607 49.8132 96.1215 42.1113 96.8051 34.4551C97.4887 26.7988 98.1495 19.1198 98.7875 11.418C102.069 10.8711 105.327 10.4154 108.563 10.0508C111.844 9.6862 115.148 9.50391 118.475 9.50391C122.531 9.50391 126.587 9.57227 130.643 9.70898C131.372 14.4486 132.079 19.1882 132.762 23.9277C133.491 28.6217 134.243 33.3385 135.018 38.0781C135.565 41.8151 136.157 45.5065 136.795 49.1523C137.479 52.7982 138.208 56.4668 138.983 60.1582ZM121.893 38.5566C121.847 38.1465 121.733 37.3945 121.551 36.3008C121.369 35.1615 121.164 33.9766 120.936 32.7461C120.708 31.4701 120.435 30.3307 120.116 29.3281C119.842 28.2799 119.569 27.6647 119.295 27.4824C119.204 27.4368 118.976 27.3913 118.612 27.3457C118.293 27.3001 117.928 27.2546 117.518 27.209C117.153 27.1634 116.789 27.1406 116.424 27.1406C116.06 27.1406 115.809 27.1406 115.672 27.1406C115.444 27.1406 115.125 27.1406 114.715 27.1406C114.351 27.1406 113.94 27.1634 113.485 27.209C113.075 27.209 112.664 27.2546 112.254 27.3457C111.89 27.4368 111.639 27.5508 111.502 27.6875C111.411 27.7331 111.297 28.0293 111.161 28.5762C111.024 29.123 110.842 29.8066 110.614 30.627C110.431 31.4017 110.226 32.2448 109.998 33.1562C109.816 34.0677 109.634 34.9336 109.452 35.7539C109.269 36.5742 109.11 37.2806 108.973 37.873C108.882 38.4655 108.814 38.8073 108.768 38.8984L121.893 38.5566Z" fill="url(#paint2_linear)"/>
<path d="M182.708 20.5781V25.3633L169.515 26.0469C169.333 28.6901 169.196 31.3105 169.105 33.9082C169.014 36.5059 168.968 39.1035 168.968 41.7012C168.968 44.8913 168.877 48.0814 168.695 51.2715C168.558 54.416 168.376 57.5605 168.148 60.7051C166.507 60.7962 164.866 60.8646 163.226 60.9102C161.585 61.0013 159.945 61.0469 158.304 61.0469C157.711 61.0469 157.119 61.0241 156.527 60.9785C155.98 60.9785 155.433 60.9785 154.886 60.9785C154.977 58.1986 155.045 55.4414 155.091 52.707C155.182 49.9271 155.228 47.1699 155.228 44.4355C155.228 41.7012 155.159 38.9668 155.023 36.2324C154.886 33.4525 154.726 30.6725 154.544 27.8926C153.223 27.9382 151.878 27.9837 150.511 28.0293C149.189 28.0749 147.845 28.0977 146.478 28.0977C145.703 28.0977 144.928 28.0977 144.154 28.0977C143.424 28.0977 142.672 28.0749 141.898 28.0293C141.761 24.6569 141.67 21.3073 141.624 17.9805C141.579 14.6536 141.533 11.3268 141.488 8C148.323 8.13672 155.114 8.3418 161.859 8.61523C168.603 8.8431 175.371 9.04818 182.161 9.23047C182.344 11.1901 182.48 13.1042 182.571 14.9727C182.663 16.7956 182.708 18.6641 182.708 20.5781Z" fill="#F3DEA7"/>
<path d="M182.708 20.5781V25.3633L169.515 26.0469C169.333 28.6901 169.196 31.3105 169.105 33.9082C169.014 36.5059 168.968 39.1035 168.968 41.7012C168.968 44.8913 168.877 48.0814 168.695 51.2715C168.558 54.416 168.376 57.5605 168.148 60.7051C166.507 60.7962 164.866 60.8646 163.226 60.9102C161.585 61.0013 159.945 61.0469 158.304 61.0469C157.711 61.0469 157.119 61.0241 156.527 60.9785C155.98 60.9785 155.433 60.9785 154.886 60.9785C154.977 58.1986 155.045 55.4414 155.091 52.707C155.182 49.9271 155.228 47.1699 155.228 44.4355C155.228 41.7012 155.159 38.9668 155.023 36.2324C154.886 33.4525 154.726 30.6725 154.544 27.8926C153.223 27.9382 151.878 27.9837 150.511 28.0293C149.189 28.0749 147.845 28.0977 146.478 28.0977C145.703 28.0977 144.928 28.0977 144.154 28.0977C143.424 28.0977 142.672 28.0749 141.898 28.0293C141.761 24.6569 141.67 21.3073 141.624 17.9805C141.579 14.6536 141.533 11.3268 141.488 8C148.323 8.13672 155.114 8.3418 161.859 8.61523C168.603 8.8431 175.371 9.04818 182.161 9.23047C182.344 11.1901 182.48 13.1042 182.571 14.9727C182.663 16.7956 182.708 18.6641 182.708 20.5781Z" fill="url(#paint3_linear)"/>
<path d="M52.8027 92.3262C52.8027 92.9681 52.765 93.5723 52.6895 94.1387C52.6139 94.7051 52.4818 95.2904 52.293 95.8945C52.0664 96.5365 51.6322 97.1595 50.9902 97.7637C50.3483 98.3301 49.6309 98.8776 48.8379 99.4062C48.0449 99.8971 47.2331 100.331 46.4023 100.709C45.5716 101.049 44.873 101.313 44.3066 101.502C44.4954 101.54 44.873 101.615 45.4395 101.729C46.0059 101.804 46.5911 101.917 47.1953 102.068C47.8372 102.219 48.4225 102.408 48.9512 102.635C49.4798 102.824 49.8197 103.031 49.9707 103.258C50.235 103.711 50.4427 104.277 50.5938 104.957C50.7826 105.599 50.9147 106.298 50.9902 107.053C51.0658 107.77 51.1224 108.488 51.1602 109.205C51.1979 109.885 51.2168 110.489 51.2168 111.018C51.2168 111.206 51.2168 111.414 51.2168 111.641C51.2168 111.829 51.1979 112.018 51.1602 112.207C51.0846 112.585 50.8203 113.094 50.3672 113.736C49.9141 114.34 49.3854 114.964 48.7812 115.605C48.1771 116.247 47.5729 116.852 46.9688 117.418C46.4023 117.947 45.9681 118.324 45.666 118.551C45.2507 118.853 44.8353 119.117 44.4199 119.344C44.0423 119.57 43.627 119.778 43.1738 119.967C42.834 120.118 42.0977 120.231 40.9648 120.307C39.8698 120.382 38.6992 120.439 37.4531 120.477C36.207 120.552 35.0365 120.59 33.9414 120.59C32.8464 120.628 32.11 120.646 31.7324 120.646C28.7116 120.646 25.7285 120.59 22.7832 120.477C19.8379 120.401 16.8548 120.288 13.834 120.137C13.9095 117.456 13.9661 114.794 14.0039 112.15C14.0417 109.469 14.0605 106.77 14.0605 104.051C14.0605 100.992 13.9661 97.9525 13.7773 94.9316C13.5885 91.9108 13.3809 88.89 13.1543 85.8691L8.79297 85.4727C8.60417 83.9622 8.45312 82.4896 8.33984 81.0547C8.26432 79.582 8.15104 78.1094 8 76.6367C11.0964 76.7122 14.1927 76.7878 17.2891 76.8633C20.3854 76.9388 23.4818 77.0143 26.5781 77.0898C27.8997 77.1276 29.5801 77.2598 31.6191 77.4863C33.6582 77.6751 35.735 77.9395 37.8496 78.2793C40.002 78.6191 42.0221 79.0345 43.9102 79.5254C45.8359 80.0163 47.3464 80.5638 48.4414 81.168C49.2721 81.6211 49.9518 82.3008 50.4805 83.207C51.0469 84.1133 51.5 85.1139 51.8398 86.209C52.1797 87.2663 52.4251 88.3424 52.5762 89.4375C52.7272 90.5326 52.8027 91.4954 52.8027 92.3262ZM37.7363 92.0996C37.7363 91.722 37.7174 91.25 37.6797 90.6836C37.6419 90.0794 37.5664 89.4753 37.4531 88.8711C37.3398 88.2669 37.1888 87.7005 37 87.1719C36.8112 86.6432 36.5846 86.209 36.3203 85.8691C36.2448 85.7559 36.0371 85.6615 35.6973 85.5859C35.3574 85.5104 34.9798 85.4538 34.5645 85.416C34.1868 85.3783 33.8092 85.3594 33.4316 85.3594C33.054 85.3594 32.8086 85.3594 32.6953 85.3594C30.8073 85.3594 28.9382 85.4727 27.0879 85.6992C25.2376 85.888 23.3874 86.1335 21.5371 86.4355C21.7637 88.2858 21.9714 90.1361 22.1602 91.9863C22.349 93.8366 22.5755 95.6868 22.8398 97.5371C23.293 97.5371 24.1803 97.4993 25.502 97.4238C26.8236 97.3483 28.2207 97.2539 29.6934 97.1406C31.2038 97.0273 32.6009 96.8952 33.8848 96.7441C35.1686 96.5553 35.9993 96.3477 36.377 96.1211C37.0189 95.7057 37.3965 95.1016 37.5098 94.3086C37.6608 93.5156 37.7363 92.7793 37.7363 92.0996ZM37.2832 108.072C37.2832 107.506 37.2077 106.939 37.0566 106.373C36.9056 105.769 36.6035 105.278 36.1504 104.9C36.0371 104.787 35.7728 104.693 35.3574 104.617C34.9421 104.542 34.5078 104.504 34.0547 104.504C33.6016 104.466 33.1673 104.447 32.752 104.447C32.3366 104.41 32.0534 104.391 31.9023 104.391C30.2786 104.391 28.6738 104.485 27.0879 104.674C25.502 104.825 23.916 104.995 22.3301 105.184L23.2363 112.377C23.4251 112.377 23.8594 112.358 24.5391 112.32C25.2565 112.283 26.0684 112.245 26.9746 112.207C27.9186 112.132 28.9004 112.056 29.9199 111.98C30.9772 111.905 31.959 111.811 32.8652 111.697C33.7715 111.584 34.5456 111.471 35.1875 111.357C35.8294 111.206 36.2259 111.036 36.377 110.848C36.7168 110.432 36.9434 109.998 37.0566 109.545C37.2077 109.092 37.2832 108.601 37.2832 108.072Z" fill="#F3DEA7"/>
<path d="M52.8027 92.3262C52.8027 92.9681 52.765 93.5723 52.6895 94.1387C52.6139 94.7051 52.4818 95.2904 52.293 95.8945C52.0664 96.5365 51.6322 97.1595 50.9902 97.7637C50.3483 98.3301 49.6309 98.8776 48.8379 99.4062C48.0449 99.8971 47.2331 100.331 46.4023 100.709C45.5716 101.049 44.873 101.313 44.3066 101.502C44.4954 101.54 44.873 101.615 45.4395 101.729C46.0059 101.804 46.5911 101.917 47.1953 102.068C47.8372 102.219 48.4225 102.408 48.9512 102.635C49.4798 102.824 49.8197 103.031 49.9707 103.258C50.235 103.711 50.4427 104.277 50.5938 104.957C50.7826 105.599 50.9147 106.298 50.9902 107.053C51.0658 107.77 51.1224 108.488 51.1602 109.205C51.1979 109.885 51.2168 110.489 51.2168 111.018C51.2168 111.206 51.2168 111.414 51.2168 111.641C51.2168 111.829 51.1979 112.018 51.1602 112.207C51.0846 112.585 50.8203 113.094 50.3672 113.736C49.9141 114.34 49.3854 114.964 48.7812 115.605C48.1771 116.247 47.5729 116.852 46.9688 117.418C46.4023 117.947 45.9681 118.324 45.666 118.551C45.2507 118.853 44.8353 119.117 44.4199 119.344C44.0423 119.57 43.627 119.778 43.1738 119.967C42.834 120.118 42.0977 120.231 40.9648 120.307C39.8698 120.382 38.6992 120.439 37.4531 120.477C36.207 120.552 35.0365 120.59 33.9414 120.59C32.8464 120.628 32.11 120.646 31.7324 120.646C28.7116 120.646 25.7285 120.59 22.7832 120.477C19.8379 120.401 16.8548 120.288 13.834 120.137C13.9095 117.456 13.9661 114.794 14.0039 112.15C14.0417 109.469 14.0605 106.77 14.0605 104.051C14.0605 100.992 13.9661 97.9525 13.7773 94.9316C13.5885 91.9108 13.3809 88.89 13.1543 85.8691L8.79297 85.4727C8.60417 83.9622 8.45312 82.4896 8.33984 81.0547C8.26432 79.582 8.15104 78.1094 8 76.6367C11.0964 76.7122 14.1927 76.7878 17.2891 76.8633C20.3854 76.9388 23.4818 77.0143 26.5781 77.0898C27.8997 77.1276 29.5801 77.2598 31.6191 77.4863C33.6582 77.6751 35.735 77.9395 37.8496 78.2793C40.002 78.6191 42.0221 79.0345 43.9102 79.5254C45.8359 80.0163 47.3464 80.5638 48.4414 81.168C49.2721 81.6211 49.9518 82.3008 50.4805 83.207C51.0469 84.1133 51.5 85.1139 51.8398 86.209C52.1797 87.2663 52.4251 88.3424 52.5762 89.4375C52.7272 90.5326 52.8027 91.4954 52.8027 92.3262ZM37.7363 92.0996C37.7363 91.722 37.7174 91.25 37.6797 90.6836C37.6419 90.0794 37.5664 89.4753 37.4531 88.8711C37.3398 88.2669 37.1888 87.7005 37 87.1719C36.8112 86.6432 36.5846 86.209 36.3203 85.8691C36.2448 85.7559 36.0371 85.6615 35.6973 85.5859C35.3574 85.5104 34.9798 85.4538 34.5645 85.416C34.1868 85.3783 33.8092 85.3594 33.4316 85.3594C33.054 85.3594 32.8086 85.3594 32.6953 85.3594C30.8073 85.3594 28.9382 85.4727 27.0879 85.6992C25.2376 85.888 23.3874 86.1335 21.5371 86.4355C21.7637 88.2858 21.9714 90.1361 22.1602 91.9863C22.349 93.8366 22.5755 95.6868 22.8398 97.5371C23.293 97.5371 24.1803 97.4993 25.502 97.4238C26.8236 97.3483 28.2207 97.2539 29.6934 97.1406C31.2038 97.0273 32.6009 96.8952 33.8848 96.7441C35.1686 96.5553 35.9993 96.3477 36.377 96.1211C37.0189 95.7057 37.3965 95.1016 37.5098 94.3086C37.6608 93.5156 37.7363 92.7793 37.7363 92.0996ZM37.2832 108.072C37.2832 107.506 37.2077 106.939 37.0566 106.373C36.9056 105.769 36.6035 105.278 36.1504 104.9C36.0371 104.787 35.7728 104.693 35.3574 104.617C34.9421 104.542 34.5078 104.504 34.0547 104.504C33.6016 104.466 33.1673 104.447 32.752 104.447C32.3366 104.41 32.0534 104.391 31.9023 104.391C30.2786 104.391 28.6738 104.485 27.0879 104.674C25.502 104.825 23.916 104.995 22.3301 105.184L23.2363 112.377C23.4251 112.377 23.8594 112.358 24.5391 112.32C25.2565 112.283 26.0684 112.245 26.9746 112.207C27.9186 112.132 28.9004 112.056 29.9199 111.98C30.9772 111.905 31.959 111.811 32.8652 111.697C33.7715 111.584 34.5456 111.471 35.1875 111.357C35.8294 111.206 36.2259 111.036 36.377 110.848C36.7168 110.432 36.9434 109.998 37.0566 109.545C37.2077 109.092 37.2832 108.601 37.2832 108.072Z" fill="url(#paint4_linear)"/>
<path d="M96.0762 120.193L87.4668 121.496C86.8626 119.57 86.2585 117.663 85.6543 115.775C85.0501 113.85 84.4648 111.924 83.8984 109.998L69.9648 110.508L68.209 118.041H59.4863C60.015 111.622 60.5625 105.24 61.1289 98.8965C61.6953 92.5527 62.2428 86.1901 62.7715 79.8086C65.4902 79.3555 68.1901 78.9779 70.8711 78.6758C73.5898 78.3737 76.3275 78.2227 79.084 78.2227C82.4447 78.2227 85.8053 78.2793 89.166 78.3926C89.7702 82.3197 90.3555 86.2467 90.9219 90.1738C91.526 94.0632 92.1491 97.9714 92.791 101.898C93.2441 104.995 93.735 108.053 94.2637 111.074C94.8301 114.095 95.4342 117.135 96.0762 120.193ZM81.916 102.295C81.8783 101.955 81.7839 101.332 81.6328 100.426C81.4818 99.4818 81.3118 98.5 81.123 97.4805C80.9342 96.4232 80.7077 95.4792 80.4434 94.6484C80.2168 93.7799 79.9902 93.2702 79.7637 93.1191C79.6882 93.0814 79.4993 93.0436 79.1973 93.0059C78.9329 92.9681 78.6309 92.9303 78.291 92.8926C77.9889 92.8548 77.6868 92.8359 77.3848 92.8359C77.0827 92.8359 76.875 92.8359 76.7617 92.8359C76.5729 92.8359 76.3086 92.8359 75.9688 92.8359C75.6667 92.8359 75.3268 92.8548 74.9492 92.8926C74.6094 92.8926 74.2695 92.9303 73.9297 93.0059C73.6276 93.0814 73.4199 93.1758 73.3066 93.2891C73.2311 93.3268 73.1367 93.5723 73.0234 94.0254C72.9102 94.4785 72.7591 95.0449 72.5703 95.7246C72.4193 96.3665 72.2493 97.0651 72.0605 97.8203C71.9095 98.5755 71.7585 99.293 71.6074 99.9727C71.4564 100.652 71.3242 101.238 71.2109 101.729C71.1354 102.219 71.0788 102.503 71.041 102.578L81.916 102.295Z" fill="#F3DEA7"/>
<path d="M96.0762 120.193L87.4668 121.496C86.8626 119.57 86.2585 117.663 85.6543 115.775C85.0501 113.85 84.4648 111.924 83.8984 109.998L69.9648 110.508L68.209 118.041H59.4863C60.015 111.622 60.5625 105.24 61.1289 98.8965C61.6953 92.5527 62.2428 86.1901 62.7715 79.8086C65.4902 79.3555 68.1901 78.9779 70.8711 78.6758C73.5898 78.3737 76.3275 78.2227 79.084 78.2227C82.4447 78.2227 85.8053 78.2793 89.166 78.3926C89.7702 82.3197 90.3555 86.2467 90.9219 90.1738C91.526 94.0632 92.1491 97.9714 92.791 101.898C93.2441 104.995 93.735 108.053 94.2637 111.074C94.8301 114.095 95.4342 117.135 96.0762 120.193ZM81.916 102.295C81.8783 101.955 81.7839 101.332 81.6328 100.426C81.4818 99.4818 81.3118 98.5 81.123 97.4805C80.9342 96.4232 80.7077 95.4792 80.4434 94.6484C80.2168 93.7799 79.9902 93.2702 79.7637 93.1191C79.6882 93.0814 79.4993 93.0436 79.1973 93.0059C78.9329 92.9681 78.6309 92.9303 78.291 92.8926C77.9889 92.8548 77.6868 92.8359 77.3848 92.8359C77.0827 92.8359 76.875 92.8359 76.7617 92.8359C76.5729 92.8359 76.3086 92.8359 75.9688 92.8359C75.6667 92.8359 75.3268 92.8548 74.9492 92.8926C74.6094 92.8926 74.2695 92.9303 73.9297 93.0059C73.6276 93.0814 73.4199 93.1758 73.3066 93.2891C73.2311 93.3268 73.1367 93.5723 73.0234 94.0254C72.9102 94.4785 72.7591 95.0449 72.5703 95.7246C72.4193 96.3665 72.2493 97.0651 72.0605 97.8203C71.9095 98.5755 71.7585 99.293 71.6074 99.9727C71.4564 100.652 71.3242 101.238 71.2109 101.729C71.1354 102.219 71.0788 102.503 71.041 102.578L81.916 102.295Z" fill="url(#paint5_linear)"/>
<path d="M145.297 120.08C143.484 120.495 141.672 120.873 139.859 121.213C138.085 121.59 136.272 121.93 134.422 122.232C132.156 118.796 129.91 115.417 127.682 112.094C125.492 108.733 123.207 105.391 120.828 102.068L114.768 107.959L114.201 120.533C113.333 120.495 112.464 120.458 111.596 120.42C110.765 120.42 109.934 120.42 109.104 120.42C108.311 120.42 107.536 120.439 106.781 120.477C106.026 120.514 105.271 120.59 104.516 120.703C104.062 117.229 103.628 113.774 103.213 110.338C102.835 106.864 102.495 103.371 102.193 99.8594C101.891 96.3477 101.646 92.8548 101.457 89.3809C101.306 85.8691 101.155 82.3574 101.004 78.8457C103.836 78.9212 106.63 78.9779 109.387 79.0156C112.181 79.0156 114.994 79.0534 117.826 79.1289L117.486 92.2695C119.525 90.1549 121.451 88.0026 123.264 85.8125C125.076 83.6224 126.945 81.3945 128.871 79.1289C130.684 79.0156 132.515 78.9023 134.365 78.7891C136.215 78.638 138.047 78.487 139.859 78.3359L139.633 82.5273L127.625 95.0449C130.495 99.3118 133.383 103.503 136.291 107.619C139.236 111.735 142.238 115.889 145.297 120.08Z" fill="#F3DEA7"/>
<path d="M145.297 120.08C143.484 120.495 141.672 120.873 139.859 121.213C138.085 121.59 136.272 121.93 134.422 122.232C132.156 118.796 129.91 115.417 127.682 112.094C125.492 108.733 123.207 105.391 120.828 102.068L114.768 107.959L114.201 120.533C113.333 120.495 112.464 120.458 111.596 120.42C110.765 120.42 109.934 120.42 109.104 120.42C108.311 120.42 107.536 120.439 106.781 120.477C106.026 120.514 105.271 120.59 104.516 120.703C104.062 117.229 103.628 113.774 103.213 110.338C102.835 106.864 102.495 103.371 102.193 99.8594C101.891 96.3477 101.646 92.8548 101.457 89.3809C101.306 85.8691 101.155 82.3574 101.004 78.8457C103.836 78.9212 106.63 78.9779 109.387 79.0156C112.181 79.0156 114.994 79.0534 117.826 79.1289L117.486 92.2695C119.525 90.1549 121.451 88.0026 123.264 85.8125C125.076 83.6224 126.945 81.3945 128.871 79.1289C130.684 79.0156 132.515 78.9023 134.365 78.7891C136.215 78.638 138.047 78.487 139.859 78.3359L139.633 82.5273L127.625 95.0449C130.495 99.3118 133.383 103.503 136.291 107.619C139.236 111.735 142.238 115.889 145.297 120.08Z" fill="url(#paint6_linear)"/>
<path d="M183.926 120.193L175.316 121.496C174.712 119.57 174.108 117.663 173.504 115.775C172.9 113.85 172.314 111.924 171.748 109.998L157.814 110.508L156.059 118.041H147.336C147.865 111.622 148.412 105.24 148.979 98.8965C149.545 92.5527 150.092 86.1901 150.621 79.8086C153.34 79.3555 156.04 78.9779 158.721 78.6758C161.439 78.3737 164.177 78.2227 166.934 78.2227C170.294 78.2227 173.655 78.2793 177.016 78.3926C177.62 82.3197 178.205 86.2467 178.771 90.1738C179.376 94.0632 179.999 97.9714 180.641 101.898C181.094 104.995 181.585 108.053 182.113 111.074C182.68 114.095 183.284 117.135 183.926 120.193ZM169.766 102.295C169.728 101.955 169.633 101.332 169.482 100.426C169.331 99.4818 169.161 98.5 168.973 97.4805C168.784 96.4232 168.557 95.4792 168.293 94.6484C168.066 93.7799 167.84 93.2702 167.613 93.1191C167.538 93.0814 167.349 93.0436 167.047 93.0059C166.783 92.9681 166.48 92.9303 166.141 92.8926C165.839 92.8548 165.536 92.8359 165.234 92.8359C164.932 92.8359 164.725 92.8359 164.611 92.8359C164.423 92.8359 164.158 92.8359 163.818 92.8359C163.516 92.8359 163.176 92.8548 162.799 92.8926C162.459 92.8926 162.119 92.9303 161.779 93.0059C161.477 93.0814 161.27 93.1758 161.156 93.2891C161.081 93.3268 160.986 93.5723 160.873 94.0254C160.76 94.4785 160.609 95.0449 160.42 95.7246C160.269 96.3665 160.099 97.0651 159.91 97.8203C159.759 98.5755 159.608 99.293 159.457 99.9727C159.306 100.652 159.174 101.238 159.061 101.729C158.985 102.219 158.928 102.503 158.891 102.578L169.766 102.295Z" fill="#F3DEA7"/>
<path d="M183.926 120.193L175.316 121.496C174.712 119.57 174.108 117.663 173.504 115.775C172.9 113.85 172.314 111.924 171.748 109.998L157.814 110.508L156.059 118.041H147.336C147.865 111.622 148.412 105.24 148.979 98.8965C149.545 92.5527 150.092 86.1901 150.621 79.8086C153.34 79.3555 156.04 78.9779 158.721 78.6758C161.439 78.3737 164.177 78.2227 166.934 78.2227C170.294 78.2227 173.655 78.2793 177.016 78.3926C177.62 82.3197 178.205 86.2467 178.771 90.1738C179.376 94.0632 179.999 97.9714 180.641 101.898C181.094 104.995 181.585 108.053 182.113 111.074C182.68 114.095 183.284 117.135 183.926 120.193ZM169.766 102.295C169.728 101.955 169.633 101.332 169.482 100.426C169.331 99.4818 169.161 98.5 168.973 97.4805C168.784 96.4232 168.557 95.4792 168.293 94.6484C168.066 93.7799 167.84 93.2702 167.613 93.1191C167.538 93.0814 167.349 93.0436 167.047 93.0059C166.783 92.9681 166.48 92.9303 166.141 92.8926C165.839 92.8548 165.536 92.8359 165.234 92.8359C164.932 92.8359 164.725 92.8359 164.611 92.8359C164.423 92.8359 164.158 92.8359 163.818 92.8359C163.516 92.8359 163.176 92.8548 162.799 92.8926C162.459 92.8926 162.119 92.9303 161.779 93.0059C161.477 93.0814 161.27 93.1758 161.156 93.2891C161.081 93.3268 160.986 93.5723 160.873 94.0254C160.76 94.4785 160.609 95.0449 160.42 95.7246C160.269 96.3665 160.099 97.0651 159.91 97.8203C159.759 98.5755 159.608 99.293 159.457 99.9727C159.306 100.652 159.174 101.238 159.061 101.729C158.985 102.219 158.928 102.503 158.891 102.578L169.766 102.295Z" fill="url(#paint7_linear)"/>
<path d="M50.0281 24.3379C46.0633 24.5658 42.144 24.748 38.2703 24.8848C34.4422 25.0215 30.5685 25.2721 26.6492 25.6367L27.1961 31.5156L38.5437 32.2676L40.4578 39.1035C38.407 39.5592 36.3335 39.9238 34.2371 40.1973C32.1863 40.4251 30.1355 40.7441 28.0848 41.1543C28.5405 44.5723 28.8595 47.9902 29.0418 51.4082C29.2241 54.7806 29.3152 58.1758 29.3152 61.5938L11.3367 62.209C11.5646 56.877 11.7013 51.5905 11.7469 46.3496C11.7924 41.0632 11.8152 35.7539 11.8152 30.4219V24.3379V10.5977C14.4585 10.5521 17.0561 10.5065 19.6082 10.4609C22.2059 10.3698 24.8263 10.3242 27.4695 10.3242C31.0242 10.3242 34.5789 10.4154 38.1336 10.5977C41.6883 10.7344 45.2658 10.8939 48.866 11.0762C49.1395 13.2637 49.3901 15.474 49.618 17.707C49.8914 19.8945 50.0281 22.1048 50.0281 24.3379Z" stroke="black" stroke-width="14" mask="url(#path-1-outside-1)"/>
<path d="M89.2418 58.6543C83.8186 59.0645 78.4182 59.4518 73.0406 59.8164C67.7086 60.181 62.331 60.5228 56.9078 60.8418C56.6799 52.1374 56.4977 43.5013 56.3609 34.9336C56.2242 26.3203 55.9736 17.6387 55.609 8.88867C58.6624 8.8431 61.6702 8.75195 64.6324 8.61523C67.5947 8.47852 70.5797 8.29622 73.5875 8.06836C73.0862 11.4408 72.6077 14.8359 72.1519 18.2539C71.7418 21.6263 71.4228 25.0215 71.1949 28.4395C71.0126 31.3105 70.8531 34.1816 70.7164 37.0527C70.6253 39.8783 70.5341 42.7266 70.443 45.5977C73.4508 45.6888 76.413 45.7344 79.3297 45.7344C82.2919 45.7344 85.2542 45.7799 88.2164 45.8711L89.2418 58.6543Z" stroke="black" stroke-width="14" mask="url(#path-1-outside-1)"/>
<path d="M138.983 60.1582L128.592 61.7305C127.863 59.4062 127.134 57.1048 126.405 54.8262C125.676 52.502 124.969 50.1777 124.286 47.8535L107.469 48.4688L105.35 57.5605H94.8227C95.4607 49.8132 96.1215 42.1113 96.8051 34.4551C97.4887 26.7988 98.1495 19.1198 98.7875 11.418C102.069 10.8711 105.327 10.4154 108.563 10.0508C111.844 9.6862 115.148 9.50391 118.475 9.50391C122.531 9.50391 126.587 9.57227 130.643 9.70898C131.372 14.4486 132.079 19.1882 132.762 23.9277C133.491 28.6217 134.243 33.3385 135.018 38.0781C135.565 41.8151 136.157 45.5065 136.795 49.1523C137.479 52.7982 138.208 56.4668 138.983 60.1582ZM121.893 38.5566C121.847 38.1465 121.733 37.3945 121.551 36.3008C121.369 35.1615 121.164 33.9766 120.936 32.7461C120.708 31.4701 120.435 30.3307 120.116 29.3281C119.842 28.2799 119.569 27.6647 119.295 27.4824C119.204 27.4368 118.976 27.3913 118.612 27.3457C118.293 27.3001 117.928 27.2546 117.518 27.209C117.153 27.1634 116.789 27.1406 116.424 27.1406C116.06 27.1406 115.809 27.1406 115.672 27.1406C115.444 27.1406 115.125 27.1406 114.715 27.1406C114.351 27.1406 113.94 27.1634 113.485 27.209C113.075 27.209 112.664 27.2546 112.254 27.3457C111.89 27.4368 111.639 27.5508 111.502 27.6875C111.411 27.7331 111.297 28.0293 111.161 28.5762C111.024 29.123 110.842 29.8066 110.614 30.627C110.431 31.4017 110.226 32.2448 109.998 33.1562C109.816 34.0677 109.634 34.9336 109.452 35.7539C109.269 36.5742 109.11 37.2806 108.973 37.873C108.882 38.4655 108.814 38.8073 108.768 38.8984L121.893 38.5566Z" stroke="black" stroke-width="14" mask="url(#path-1-outside-1)"/>
<path d="M182.708 20.5781V25.3633L169.515 26.0469C169.333 28.6901 169.196 31.3105 169.105 33.9082C169.014 36.5059 168.968 39.1035 168.968 41.7012C168.968 44.8913 168.877 48.0814 168.695 51.2715C168.558 54.416 168.376 57.5605 168.148 60.7051C166.507 60.7962 164.866 60.8646 163.226 60.9102C161.585 61.0013 159.945 61.0469 158.304 61.0469C157.711 61.0469 157.119 61.0241 156.527 60.9785C155.98 60.9785 155.433 60.9785 154.886 60.9785C154.977 58.1986 155.045 55.4414 155.091 52.707C155.182 49.9271 155.228 47.1699 155.228 44.4355C155.228 41.7012 155.159 38.9668 155.023 36.2324C154.886 33.4525 154.726 30.6725 154.544 27.8926C153.223 27.9382 151.878 27.9837 150.511 28.0293C149.189 28.0749 147.845 28.0977 146.478 28.0977C145.703 28.0977 144.928 28.0977 144.154 28.0977C143.424 28.0977 142.672 28.0749 141.898 28.0293C141.761 24.6569 141.67 21.3073 141.624 17.9805C141.579 14.6536 141.533 11.3268 141.488 8C148.323 8.13672 155.114 8.3418 161.859 8.61523C168.603 8.8431 175.371 9.04818 182.161 9.23047C182.344 11.1901 182.48 13.1042 182.571 14.9727C182.663 16.7956 182.708 18.6641 182.708 20.5781Z" stroke="black" stroke-width="14" mask="url(#path-1-outside-1)"/>
<path d="M52.8027 92.3262C52.8027 92.9681 52.765 93.5723 52.6895 94.1387C52.6139 94.7051 52.4818 95.2904 52.293 95.8945C52.0664 96.5365 51.6322 97.1595 50.9902 97.7637C50.3483 98.3301 49.6309 98.8776 48.8379 99.4062C48.0449 99.8971 47.2331 100.331 46.4023 100.709C45.5716 101.049 44.873 101.313 44.3066 101.502C44.4954 101.54 44.873 101.615 45.4395 101.729C46.0059 101.804 46.5911 101.917 47.1953 102.068C47.8372 102.219 48.4225 102.408 48.9512 102.635C49.4798 102.824 49.8197 103.031 49.9707 103.258C50.235 103.711 50.4427 104.277 50.5938 104.957C50.7826 105.599 50.9147 106.298 50.9902 107.053C51.0658 107.77 51.1224 108.488 51.1602 109.205C51.1979 109.885 51.2168 110.489 51.2168 111.018C51.2168 111.206 51.2168 111.414 51.2168 111.641C51.2168 111.829 51.1979 112.018 51.1602 112.207C51.0846 112.585 50.8203 113.094 50.3672 113.736C49.9141 114.34 49.3854 114.964 48.7812 115.605C48.1771 116.247 47.5729 116.852 46.9688 117.418C46.4023 117.947 45.9681 118.324 45.666 118.551C45.2507 118.853 44.8353 119.117 44.4199 119.344C44.0423 119.57 43.627 119.778 43.1738 119.967C42.834 120.118 42.0977 120.231 40.9648 120.307C39.8698 120.382 38.6992 120.439 37.4531 120.477C36.207 120.552 35.0365 120.59 33.9414 120.59C32.8464 120.628 32.11 120.646 31.7324 120.646C28.7116 120.646 25.7285 120.59 22.7832 120.477C19.8379 120.401 16.8548 120.288 13.834 120.137C13.9095 117.456 13.9661 114.794 14.0039 112.15C14.0417 109.469 14.0605 106.77 14.0605 104.051C14.0605 100.992 13.9661 97.9525 13.7773 94.9316C13.5885 91.9108 13.3809 88.89 13.1543 85.8691L8.79297 85.4727C8.60417 83.9622 8.45312 82.4896 8.33984 81.0547C8.26432 79.582 8.15104 78.1094 8 76.6367C11.0964 76.7122 14.1927 76.7878 17.2891 76.8633C20.3854 76.9388 23.4818 77.0143 26.5781 77.0898C27.8997 77.1276 29.5801 77.2598 31.6191 77.4863C33.6582 77.6751 35.735 77.9395 37.8496 78.2793C40.002 78.6191 42.0221 79.0345 43.9102 79.5254C45.8359 80.0163 47.3464 80.5638 48.4414 81.168C49.2721 81.6211 49.9518 82.3008 50.4805 83.207C51.0469 84.1133 51.5 85.1139 51.8398 86.209C52.1797 87.2663 52.4251 88.3424 52.5762 89.4375C52.7272 90.5326 52.8027 91.4954 52.8027 92.3262ZM37.7363 92.0996C37.7363 91.722 37.7174 91.25 37.6797 90.6836C37.6419 90.0794 37.5664 89.4753 37.4531 88.8711C37.3398 88.2669 37.1888 87.7005 37 87.1719C36.8112 86.6432 36.5846 86.209 36.3203 85.8691C36.2448 85.7559 36.0371 85.6615 35.6973 85.5859C35.3574 85.5104 34.9798 85.4538 34.5645 85.416C34.1868 85.3783 33.8092 85.3594 33.4316 85.3594C33.054 85.3594 32.8086 85.3594 32.6953 85.3594C30.8073 85.3594 28.9382 85.4727 27.0879 85.6992C25.2376 85.888 23.3874 86.1335 21.5371 86.4355C21.7637 88.2858 21.9714 90.1361 22.1602 91.9863C22.349 93.8366 22.5755 95.6868 22.8398 97.5371C23.293 97.5371 24.1803 97.4993 25.502 97.4238C26.8236 97.3483 28.2207 97.2539 29.6934 97.1406C31.2038 97.0273 32.6009 96.8952 33.8848 96.7441C35.1686 96.5553 35.9993 96.3477 36.377 96.1211C37.0189 95.7057 37.3965 95.1016 37.5098 94.3086C37.6608 93.5156 37.7363 92.7793 37.7363 92.0996ZM37.2832 108.072C37.2832 107.506 37.2077 106.939 37.0566 106.373C36.9056 105.769 36.6035 105.278 36.1504 104.9C36.0371 104.787 35.7728 104.693 35.3574 104.617C34.9421 104.542 34.5078 104.504 34.0547 104.504C33.6016 104.466 33.1673 104.447 32.752 104.447C32.3366 104.41 32.0534 104.391 31.9023 104.391C30.2786 104.391 28.6738 104.485 27.0879 104.674C25.502 104.825 23.916 104.995 22.3301 105.184L23.2363 112.377C23.4251 112.377 23.8594 112.358 24.5391 112.32C25.2565 112.283 26.0684 112.245 26.9746 112.207C27.9186 112.132 28.9004 112.056 29.9199 111.98C30.9772 111.905 31.959 111.811 32.8652 111.697C33.7715 111.584 34.5456 111.471 35.1875 111.357C35.8294 111.206 36.2259 111.036 36.377 110.848C36.7168 110.432 36.9434 109.998 37.0566 109.545C37.2077 109.092 37.2832 108.601 37.2832 108.072Z" stroke="black" stroke-width="14" mask="url(#path-1-outside-1)"/>
<path d="M96.0762 120.193L87.4668 121.496C86.8626 119.57 86.2585 117.663 85.6543 115.775C85.0501 113.85 84.4648 111.924 83.8984 109.998L69.9648 110.508L68.209 118.041H59.4863C60.015 111.622 60.5625 105.24 61.1289 98.8965C61.6953 92.5527 62.2428 86.1901 62.7715 79.8086C65.4902 79.3555 68.1901 78.9779 70.8711 78.6758C73.5898 78.3737 76.3275 78.2227 79.084 78.2227C82.4447 78.2227 85.8053 78.2793 89.166 78.3926C89.7702 82.3197 90.3555 86.2467 90.9219 90.1738C91.526 94.0632 92.1491 97.9714 92.791 101.898C93.2441 104.995 93.735 108.053 94.2637 111.074C94.8301 114.095 95.4342 117.135 96.0762 120.193ZM81.916 102.295C81.8783 101.955 81.7839 101.332 81.6328 100.426C81.4818 99.4818 81.3118 98.5 81.123 97.4805C80.9342 96.4232 80.7077 95.4792 80.4434 94.6484C80.2168 93.7799 79.9902 93.2702 79.7637 93.1191C79.6882 93.0814 79.4993 93.0436 79.1973 93.0059C78.9329 92.9681 78.6309 92.9303 78.291 92.8926C77.9889 92.8548 77.6868 92.8359 77.3848 92.8359C77.0827 92.8359 76.875 92.8359 76.7617 92.8359C76.5729 92.8359 76.3086 92.8359 75.9688 92.8359C75.6667 92.8359 75.3268 92.8548 74.9492 92.8926C74.6094 92.8926 74.2695 92.9303 73.9297 93.0059C73.6276 93.0814 73.4199 93.1758 73.3066 93.2891C73.2311 93.3268 73.1367 93.5723 73.0234 94.0254C72.9102 94.4785 72.7591 95.0449 72.5703 95.7246C72.4193 96.3665 72.2493 97.0651 72.0605 97.8203C71.9095 98.5755 71.7585 99.293 71.6074 99.9727C71.4564 100.652 71.3242 101.238 71.2109 101.729C71.1354 102.219 71.0788 102.503 71.041 102.578L81.916 102.295Z" stroke="black" stroke-width="14" mask="url(#path-1-outside-1)"/>
<path d="M145.297 120.08C143.484 120.495 141.672 120.873 139.859 121.213C138.085 121.59 136.272 121.93 134.422 122.232C132.156 118.796 129.91 115.417 127.682 112.094C125.492 108.733 123.207 105.391 120.828 102.068L114.768 107.959L114.201 120.533C113.333 120.495 112.464 120.458 111.596 120.42C110.765 120.42 109.934 120.42 109.104 120.42C108.311 120.42 107.536 120.439 106.781 120.477C106.026 120.514 105.271 120.59 104.516 120.703C104.062 117.229 103.628 113.774 103.213 110.338C102.835 106.864 102.495 103.371 102.193 99.8594C101.891 96.3477 101.646 92.8548 101.457 89.3809C101.306 85.8691 101.155 82.3574 101.004 78.8457C103.836 78.9212 106.63 78.9779 109.387 79.0156C112.181 79.0156 114.994 79.0534 117.826 79.1289L117.486 92.2695C119.525 90.1549 121.451 88.0026 123.264 85.8125C125.076 83.6224 126.945 81.3945 128.871 79.1289C130.684 79.0156 132.515 78.9023 134.365 78.7891C136.215 78.638 138.047 78.487 139.859 78.3359L139.633 82.5273L127.625 95.0449C130.495 99.3118 133.383 103.503 136.291 107.619C139.236 111.735 142.238 115.889 145.297 120.08Z" stroke="black" stroke-width="14" mask="url(#path-1-outside-1)"/>
<path d="M183.926 120.193L175.316 121.496C174.712 119.57 174.108 117.663 173.504 115.775C172.9 113.85 172.314 111.924 171.748 109.998L157.814 110.508L156.059 118.041H147.336C147.865 111.622 148.412 105.24 148.979 98.8965C149.545 92.5527 150.092 86.1901 150.621 79.8086C153.34 79.3555 156.04 78.9779 158.721 78.6758C161.439 78.3737 164.177 78.2227 166.934 78.2227C170.294 78.2227 173.655 78.2793 177.016 78.3926C177.62 82.3197 178.205 86.2467 178.771 90.1738C179.376 94.0632 179.999 97.9714 180.641 101.898C181.094 104.995 181.585 108.053 182.113 111.074C182.68 114.095 183.284 117.135 183.926 120.193ZM169.766 102.295C169.728 101.955 169.633 101.332 169.482 100.426C169.331 99.4818 169.161 98.5 168.973 97.4805C168.784 96.4232 168.557 95.4792 168.293 94.6484C168.066 93.7799 167.84 93.2702 167.613 93.1191C167.538 93.0814 167.349 93.0436 167.047 93.0059C166.783 92.9681 166.48 92.9303 166.141 92.8926C165.839 92.8548 165.536 92.8359 165.234 92.8359C164.932 92.8359 164.725 92.8359 164.611 92.8359C164.423 92.8359 164.158 92.8359 163.818 92.8359C163.516 92.8359 163.176 92.8548 162.799 92.8926C162.459 92.8926 162.119 92.9303 161.779 93.0059C161.477 93.0814 161.27 93.1758 161.156 93.2891C161.081 93.3268 160.986 93.5723 160.873 94.0254C160.76 94.4785 160.609 95.0449 160.42 95.7246C160.269 96.3665 160.099 97.0651 159.91 97.8203C159.759 98.5755 159.608 99.293 159.457 99.9727C159.306 100.652 159.174 101.238 159.061 101.729C158.985 102.219 158.928 102.503 158.891 102.578L169.766 102.295Z" stroke="black" stroke-width="14" mask="url(#path-1-outside-1)"/>
<defs>
<linearGradient id="paint0_linear" x1="95.9629" y1="8" x2="95.9629" y2="122.232" gradientUnits="userSpaceOnUse">
<stop stop-color="#F1894E"/>
<stop offset="1" stop-color="white" stop-opacity="0"/>
</linearGradient>
<linearGradient id="paint1_linear" x1="95.9629" y1="8" x2="95.9629" y2="122.232" gradientUnits="userSpaceOnUse">
<stop stop-color="#F1894E"/>
<stop offset="1" stop-color="white" stop-opacity="0"/>
</linearGradient>
<linearGradient id="paint2_linear" x1="95.9629" y1="8" x2="95.9629" y2="122.232" gradientUnits="userSpaceOnUse">
<stop stop-color="#F1894E"/>
<stop offset="1" stop-color="white" stop-opacity="0"/>
</linearGradient>
<linearGradient id="paint3_linear" x1="95.9629" y1="8" x2="95.9629" y2="122.232" gradientUnits="userSpaceOnUse">
<stop stop-color="#F1894E"/>
<stop offset="1" stop-color="white" stop-opacity="0"/>
</linearGradient>
<linearGradient id="paint4_linear" x1="95.9629" y1="8" x2="95.9629" y2="122.232" gradientUnits="userSpaceOnUse">
<stop stop-color="#F1894E"/>
<stop offset="1" stop-color="white" stop-opacity="0"/>
</linearGradient>
<linearGradient id="paint5_linear" x1="95.9629" y1="8" x2="95.9629" y2="122.232" gradientUnits="userSpaceOnUse">
<stop stop-color="#F1894E"/>
<stop offset="1" stop-color="white" stop-opacity="0"/>
</linearGradient>
<linearGradient id="paint6_linear" x1="95.9629" y1="8" x2="95.9629" y2="122.232" gradientUnits="userSpaceOnUse">
<stop stop-color="#F1894E"/>
<stop offset="1" stop-color="white" stop-opacity="0"/>
</linearGradient>
<linearGradient id="paint7_linear" x1="95.9629" y1="8" x2="95.9629" y2="122.232" gradientUnits="userSpaceOnUse">
<stop stop-color="#F1894E"/>
<stop offset="1" stop-color="white" stop-opacity="0"/>
</linearGradient>
</defs>
</svg>
